# xmcd
#
# Track frame offsets:
# 150
# 21665
# 44130
# 69242
# 88480
# 117312
# 142347
# 178655
# 198367
# 217790
# 240305
# 254862
# 289105
# 313505
# 330480
#
# Disc length: 4718 seconds
#
# Revision: 0
# Processed by: cddbd v1.5.1PL0 Copyright (c) Steve Scherf et al.
# Submitted via: Audion 3.0.2 (http://www.panic.com/audion/)
#
DISCID=ee126c0f
DTITLE=Terry Callier - Speak Your Peace
DYEAR=1900
DGENRE=
TTITLE0=Monuments Of Mars
TTITLE1=Running Around
TTITLE2=Darker Than A Shadow
TTITLE3=Brother To Brother
TTITLE4=Turn This Mutha
TTITLE5=Caravan Of Love
TTITLE6=Sierra Leone
TTITLE7=Speak Your Peace
TTITLE8=Tokyo Moon
TTITLE9=We Are Not Alone
TTITLE10=Just My Imagination
TTITLE11=Imagine A Nation
TTITLE12=Chelsea Blue
TTITLE13=Got To Get It All Straightened Out
TTITLE14=What Color Is Love
EXTD=
EXTT0=
EXTT1=
EXTT2=
EXTT3=
EXTT4=
EXTT5=
EXTT6=
EXTT7=
EXTT8=
EXTT9=
EXTT10=
EXTT11=
EXTT12=
EXTT13=
EXTT14=
PLAYORDER=
